<?xml version="1.0" encoding="UTF-8"?>
<svg id="Capa_2" data-name="Capa 2" xmlns="http://www.w3.org/2000/svg" viewBox="0 0 213.68 86.75">
  <defs>
    <style>
      .cls-1 {
        fill: #005461;
      }
    </style>
  </defs>
  <g id="Capa_1-2" data-name="Capa 1">
    <g>
      <g>
        <path class="cls-1" d="M171.93,19.84c0-2.08-.3-3.48-.9-4.2-.6-.72-1.85-1.75-3.99-1.94-.82-.13-1.23-.53-1.23-1.23,0-.38.06-.82.19-1.32.82,0,1.9-.05,3.26-.14,1.35-.09,2.5-.24,3.45-.43,1.38-.19,2.6-.43,3.64-.71,1.04-.28,1.69.14,2.19.14.88,0,1.32.47,1.32,1.42v23.61c0,1.57.09,3.02.28,4.34.19,1.32.53,2.47,1.04,3.45.5.98,1.23,1.73,2.17,2.27.95.54,2.14.8,3.59.8,1.57,0,3.12-.27,4.63-.8,1.51-.53,2.85-1.32,4.01-2.36,1.16-1.04,2.09-2.31,2.79-3.83.69-1.51,1.04-3.27,1.04-5.29v-13.79c0-2.01-.3-3.4-.9-4.16-.6-.76-2-1.23-4.2-1.42-.82-.13-1.23-.53-1.23-1.23,0-.38.06-.82.19-1.32.82,0,1.9-.05,3.26-.14,1.35-.09,2.53-.24,3.54-.43,1.4-.19,2.62-.43,3.64-.71,1.02-.28,1.79-.43,2.3-.43.89,0,1.34.47,1.34,1.42v30.7c0,1.07.06,1.94.19,2.6.13.66.38,1.2.76,1.61.38.41.9.72,1.56.94.66.22,1.53.36,2.6.43.82.13,1.23.54,1.23,1.23,0,.38-.06.82-.19,1.32-1.2,0-2.46.09-3.78.28-1.32.19-2.59.38-3.8.57-1.21.19-2.28.38-3.2.57-.92.19-1.58.28-1.96.28-.89,0-1.34-.47-1.34-1.42v-7.84c-.19.19-.72.79-1.61,1.79-.88,1.01-2.03,2.08-3.45,3.21-1.42,1.13-3.06,2.16-4.91,3.07-1.86.91-3.86,1.37-6,1.37-3.84,0-6.72-1.1-8.64-3.31-1.92-2.2-2.88-5.32-2.88-9.35v-19.65Z"/>
        <path class="cls-1" d="M103.44,20.92c.39-1.22,1.35-3.63,1.74-4.54.39-.91.84-1.64,1.36-2.18.52-.55,1.16-.96,1.94-1.22.77-.26,1.71-.39,2.81-.39,2.97,0,5.04.98,6.2,2.95,1.16,1.98,1.75,4.48,1.75,7.51,0,1.3-.12,2.17-.34,2.62-.23.46-.79.81-1.7,1.07-.71.26-1.54.5-2.47.73-.94.23-1.96.44-3.05.63-1.94.46-3.96,1.01-6.06,1.65-2.1.65-4.04,1.5-5.81,2.57-1.78,1.07-3.23,2.42-4.36,4.07-1.13,1.65-1.7,3.67-1.7,6.06,0,2.13.42,3.84,1.26,5.14.84,1.3,1.91,2.3,3.2,3.01,1.3.71,2.67,1.18,4.12,1.4,1.45.23,2.83.34,4.12.34,2.91,0,5.47-.53,7.71-1.6,2.23-1.07,4.15-3.05,5.77-5.96.13.97.39,1.91.78,2.81.39.91.95,1.71,1.67,2.42.72.71,1.6,1.28,2.65,1.7,1.05.41,2.29.62,3.72.62,2.58,0,4.71-.58,6.4-1.74-.07-1.36-.46-2.04-1.16-2.04-.33,0-.63.06-.92.19-.29.14-.79.2-1.5.2-.58,0-1.15-.14-1.7-.43-.55-.29-1.05-.89-1.5-1.79-.33-.58-.56-1.37-.73-2.38-.16-1-.24-2.63-.24-4.89v-16.68c0-2.78-.34-5.04-1.03-6.79-.69-1.74-1.68-3.13-3-4.16-1.3-1.03-2.87-1.75-4.69-2.13-1.82-.39-3.86-.58-6.12-.58-1.81,0-3.72.34-5.72,1.02-2,.68-3.86,1.57-5.57,2.67-1.71,1.09-3.12,2.36-4.22,3.78-1.1,1.42-1.64,2.85-1.64,4.27v.08c0,.05,0,.11,0,.16.02.53.14,1.04.36,1.49,0,0,0,.01,0,.01.63,1.39,2.03,2.35,3.65,2.35,2.22,0,4.02-1.8,4.02-4.02M119.23,37.22c0,1.62-.28,3.1-.83,4.46-.56,1.36-1.27,2.53-2.15,3.54-.88,1-1.92,1.77-3.12,2.32-1.2.55-2.42.82-3.66.82-1.88,0-3.46-.65-4.73-1.94-1.26-1.29-1.9-3.17-1.9-5.62,0-1.81.37-3.32,1.12-4.55.75-1.23,1.74-2.25,2.98-3.06,1.24-.81,2.65-1.43,4.24-1.89,1.6-.45,3.24-.84,4.92-1.16l3.12-.49v7.56Z"/>
        <path class="cls-1" d="M70.41,14.56c0,2.9-2.35,5.26-5.26,5.26-2.21,0-4.1-1.37-4.88-3.29-.56-.23-1.17-.34-1.81-.34-1.1,0-2.1.31-3,.92-.91.62-1.68,1.45-2.33,2.52-.65,1.07-1.15,2.3-1.5,3.69-.35,1.39-.54,2.83-.54,4.31v16.68c0,1.42.75,2.47,2.23,3.15,1.48.67,3.61,1.21,6.39,1.6.65.13.97.52.97,1.16,0,.39-.06.91-.19,1.56-.71-.07-1.6-.12-2.67-.15-1.07-.03-2.18-.08-3.34-.14-1.16-.07-2.36-.12-3.6-.15-1.24-.03-2.38-.05-3.42-.05-1.77,0-3.59.05-5.47.15-1.88.1-3.66.2-5.35.34-.13-.65-.19-1.17-.19-1.56,0-.65.29-1.03.87-1.16,1.49-.26,2.8-.65,3.93-1.16,1.13-.52,1.7-1.26,1.7-2.23v-24.62c0-1.36-.08-2.49-.24-3.39-.16-.9-.43-1.63-.82-2.18-.39-.55-.96-.96-1.7-1.22-.74-.26-1.7-.45-2.86-.58-.84-.13-1.26-.55-1.26-1.26,0-.39.06-.84.19-1.36.84,0,2.02-.05,3.54-.14,1.51-.1,2.76-.21,3.74-.34,1.43-.26,2.7-.53,3.77-.82,1.08-.29,1.88-.43,2.4-.43.92,0,1.37.48,1.37,1.45v6.49c2.07-2.26,4.16-4.15,6.26-5.67,2.1-1.51,4.47-2.28,7.13-2.28.12,0,.24,0,.35.01,1.24.03,2.26.29,3.04.75.12.07.24.15.35.24.03.01.05.03.08.06,1.28.95,2.1,2.48,2.1,4.2Z"/>
        <path class="cls-1" d="M94.6,37.91c.17-.2.51-.54,1.05-.71.09-.03.31-.1.53-.1.58,0,1.1.42,1.55,1.26-1.6,5.72-4.36,9.8-6.71,11.49-2.14,1.54-4.25,2.02-4.25,2.02-1.07.24-1.98.28-2.56.28-1.29,0-2.52-.15-3.68-.44-1.16-.29-2.17-.86-3-1.7-.84-.84-1.5-1.99-1.99-3.44-.48-1.45-.73-3.34-.73-5.67V14.15c-1.87,1.52-3.93,3.02-6.21,4.44-.38.23-.75.46-1.12.68v-1.07c0-.45.08-.87.24-1.26.16-.39.5-.58,1.02-.58.43,0,.78-.2.91-.26.32-.15.67-.59.75-1.89,4.71-3.29,6.3-5.94,6.84-7.82.17-.59.61-2.44,2.04-4.36.7-.94,1.42-1.61,1.94-2.04h1.74v10.08h11.34c0,1.36-.15,2.37-.44,3.05-.29.68-.82,1.02-1.6,1.02h-9.3v24.04c0,2.07.1,3.73.29,4.99.19,1.26.48,2.23.87,2.91.39.68.84,1.11,1.36,1.31.52.19,1.1.29,1.74.29.88,0,1.67-.17,2.13-.34,1.97-.72,2.96-3.29,4.88-8.41.16-.43.29-.79.38-1.03Z"/>
        <path class="cls-1" d="M143.79,13.67c-2.13,0-3.68.47-4.65,1.41-.97.94-1.68,2.83-2.13,5.67-.13.58-.58.87-1.36.87-.45,0-.81-.1-1.07-.29.13-1.61.23-3.2.29-4.75.06-1.55.13-2.87.19-3.97.06-.71.21-1.31.44-1.79.23-.48.66-.73,1.31-.73h30.14c.13.26.19.48.19.68,0,.13-.03.28-.1.44-.07.16-.26.47-.58.92l-22.29,35.28h14.64c1.74,0,3.12-.61,4.12-1.84,1-1.23,1.86-3.1,2.57-5.62.19-.65.68-.97,1.45-.97.13,0,.32.03.58.1.26.07.45.13.58.19l-.97,10.95c-.07.52-.21.84-.44.97-.23.13-.57.19-1.02.19-.39,0-.92-.02-1.6-.05-.68-.03-1.34-.08-1.99-.15-1.03-.07-2.13-.11-3.3-.15-1.16-.03-2.23-.05-3.2-.05h-22.39c-.07-.06-.1-.26-.1-.58,0-.13.03-.29.1-.48.06-.19.26-.52.58-.97l22.58-35.28h-12.6Z"/>
        <path class="cls-1" d="M9.7,20.73c.39-1.22,1.35-3.63,1.74-4.54.39-.91.84-1.64,1.36-2.18.52-.55,1.16-.96,1.94-1.22.77-.26,1.71-.39,2.81-.39,2.97,0,5.04.98,6.2,2.95,1.16,1.98,1.75,4.48,1.75,7.51,0,1.3-.12,2.17-.34,2.62-.23.46-.79.81-1.7,1.07-.71.26-1.54.5-2.47.73-.94.23-1.96.44-3.05.63-1.94.46-3.96,1.01-6.06,1.65-2.1.65-4.04,1.5-5.81,2.57-1.78,1.07-3.23,2.42-4.36,4.07-1.13,1.65-1.7,3.67-1.7,6.06,0,2.13.42,3.84,1.26,5.14.84,1.3,1.91,2.3,3.2,3.01,1.3.71,2.67,1.18,4.12,1.4,1.45.23,2.83.34,4.12.34,2.91,0,5.47-.53,7.71-1.6,2.23-1.07,4.15-3.05,5.77-5.96.13.97.39,1.91.78,2.81.39.91.95,1.71,1.67,2.42.72.71,1.6,1.28,2.65,1.7,1.05.41,2.29.62,3.72.62,2.58,0,4.71-.58,6.4-1.74-.07-1.36-.46-2.04-1.16-2.04-.33,0-.63.06-.92.19-.29.14-.79.2-1.5.2-.58,0-1.15-.14-1.7-.43-.55-.29-1.05-.89-1.5-1.79-.33-.58-.56-1.37-.73-2.38-.16-1-.24-2.63-.24-4.89v-16.68c0-2.78-.34-5.04-1.03-6.79-.69-1.74-1.68-3.13-3-4.16-1.3-1.03-2.87-1.75-4.69-2.13-1.82-.39-3.86-.58-6.12-.58-1.81,0-3.72.34-5.72,1.02-2,.68-3.86,1.57-5.57,2.67-1.71,1.09-3.12,2.36-4.22,3.78-1.1,1.42-1.64,2.85-1.64,4.27v.08c0,.05,0,.11,0,.16.02.53.14,1.04.36,1.49,0,0,0,.01,0,.01.63,1.39,2.03,2.35,3.65,2.35,2.22,0,4.02-1.8,4.02-4.02M25.49,37.02c0,1.62-.28,3.1-.83,4.46-.56,1.36-1.27,2.53-2.15,3.54-.88,1-1.92,1.77-3.12,2.32s-2.42.82-3.66.82c-1.88,0-3.46-.65-4.73-1.94-1.26-1.29-1.9-3.17-1.9-5.62,0-1.81.37-3.32,1.12-4.55.75-1.23,1.74-2.25,2.98-3.06s2.65-1.43,4.24-1.89c1.6-.45,3.24-.84,4.92-1.16l3.12-.49v7.56Z"/>
      </g>
      <g>
        <path class="cls-1" d="M36.81,86.51h-.9v-13.76h.92l5.35,7.02,5.35-7.02h.88v13.76h-.9v-12.36l-5.03,6.6h-.59l-5.07-6.6v12.36Z"/>
        <path class="cls-1" d="M65.6,86.51h-9.51v-13.76h9.2v.85h-8.29v5.09h6.86v.85h-6.86v6.13h8.61v.85Z"/>
        <path class="cls-1" d="M78.08,86.75c-1.98,0-3.62-.67-4.93-2-1.32-1.36-1.98-3.07-1.98-5.11s.66-3.74,1.98-5.09c1.31-1.35,2.95-2.02,4.93-2.02,1.51,0,2.82.36,3.93,1.08v.98c-1.19-.8-2.5-1.2-3.91-1.2-1.7,0-3.13.6-4.28,1.79-1.15,1.17-1.73,2.65-1.73,4.46s.58,3.29,1.73,4.48c1.15,1.18,2.59,1.77,4.3,1.77s3.04-.48,4.21-1.43v1c-1.14.86-2.56,1.3-4.25,1.3Z"/>
        <path class="cls-1" d="M89.82,86.51h-.9v-13.76h.9v5.94h8.98v-5.94h.9v13.76h-.9v-6.98h-8.98v6.98Z"/>
        <path class="cls-1" d="M106.93,86.51h-.96l6.25-13.84h.85l6.21,13.84h-.94l-1.83-4.05h-7.74l-1.83,4.05ZM112.63,73.85l-3.56,7.82h7.1l-3.54-7.82Z"/>
        <path class="cls-1" d="M126.43,86.51h-.9v-13.76h.81l9.37,12.19v-12.19h.9v13.76h-.79l-9.39-12.21v12.21Z"/>
        <path class="cls-1" d="M145.34,86.51h-.9v-13.76h.9v13.76Z"/>
        <path class="cls-1" d="M159.45,86.75c-1.98,0-3.62-.67-4.93-2-1.32-1.36-1.98-3.07-1.98-5.11s.66-3.74,1.98-5.09c1.31-1.35,2.95-2.02,4.93-2.02,1.51,0,2.82.36,3.93,1.08v.98c-1.19-.8-2.5-1.2-3.91-1.2-1.7,0-3.13.6-4.28,1.79-1.15,1.17-1.73,2.65-1.73,4.46s.58,3.29,1.73,4.48c1.15,1.18,2.59,1.77,4.3,1.77s3.04-.48,4.21-1.43v1c-1.14.86-2.56,1.3-4.25,1.3Z"/>
        <path class="cls-1" d="M174.19,86.75c-.98,0-1.93-.14-2.85-.42-.92-.28-1.64-.63-2.18-1.05v-1.04c.51.43,1.21.82,2.1,1.16.86.33,1.81.49,2.85.49,1.18,0,2.16-.27,2.93-.81.77-.54,1.16-1.26,1.16-2.16,0-.72-.26-1.33-.79-1.83-.24-.21-.55-.4-.94-.57-.35-.17-.72-.31-1.1-.43-.18-.07-.62-.19-1.3-.37l-1.47-.43c-.47-.18-.87-.35-1.2-.51-.62-.31-1.06-.68-1.34-1.11-.28-.43-.43-1.01-.47-1.74,0-.97.4-1.78,1.2-2.42.81-.65,1.93-.98,3.36-.98,1.59,0,2.97.39,4.17,1.16v.96c-1.24-.84-2.62-1.26-4.13-1.26-1.18,0-2.09.24-2.73.72-.64.48-.96,1.09-.96,1.84-.07.68.3,1.32,1.1,1.93.16.11.41.23.77.37.37.14.65.24.84.29l.94.28.41.12,1.34.41c.29.08.69.25,1.2.51.46.21.82.45,1.08.71.63.63.94,1.41.94,2.36,0,1.21-.48,2.15-1.43,2.83-.97.67-2.14,1-3.5,1Z"/>
      </g>
    </g>
  </g>
</svg>