<?xml version="1.0" encoding="UTF-8"?>
<svg id="Capa_2" data-name="Capa 2" xmlns="http://www.w3.org/2000/svg" viewBox="0 0 205.05 65.09">
  <defs>
    <style>
      .cls-1 {
        fill: #005461;
        fill-rule: evenodd;
      }
    </style>
  </defs>
  <g id="Capa_1-2" data-name="Capa 1">
    <g>
      <path class="cls-1" d="M29.6,0l59.07.21.14,17.34-56.25.1c-8.53-.41-7.83,15.72-.26,15.3l51.59.16L102.7.07l32.44.03v33.19s10.91-.14,10.91-.14V.1l45.47.04v16.52l-27.31.14.14,16.23,21.84.21-.03,16.26-22.84.06.13,14.83-17.09-.29-.25-14.21-10.68-.44-.32,15.56-18.22.07.1-15.23-19.75-.65-8.14,15.33h-22.45s8.55-14.63,8.55-14.63l-45.7-.32C-3.32,46.22,1.3,1.07,29.6,0h0ZM116.34,15.61l-.15,17.13-9.85-.15,10-16.98h0Z"/>
      <polygon class="cls-1" points="0 33.1 7.56 33.1 7.56 35.21 0 35.21 0 33.1 0 33.1"/>
      <polygon class="cls-1" points="187.5 33.1 205.05 33.1 205.05 35.21 187.5 35.21 187.5 33.1 187.5 33.1"/>
    </g>
  </g>
</svg>