<?xml version="1.0" encoding="UTF-8"?>
<svg id="Capa_2" data-name="Capa 2" xmlns="http://www.w3.org/2000/svg" viewBox="0 0 277.78 49.79">
  <defs>
    <style>
      .cls-1 {
        fill: #005461;
      }
    </style>
  </defs>
  <g id="Capa_1-2" data-name="Capa 1">
    <g id="Objeto_generativo" data-name="Objeto generativo">
      <polygon class="cls-1" points="163.9 8.48 163.94 41.53 156.45 41.53 142.97 20.03 143 41.53 135.68 41.53 135.66 8.49 144.51 8.49 149.35 16.22 156.58 27.78 156.57 8.49 163.9 8.48"/>
      <path class="cls-1" d="M75.16,34.53h13.82c1.27-.24,2.43-.58,3.47-1.32,3.71-2.63,4.04-8.52,2.91-12.73-.49-1.82-1.51-3.32-3-4.4-1.07-.69-2.26-1.02-3.54-1.03l-4.74-.03.03,15.08h-8.75s.02-21.97.02-21.97h11.6s5.39.46,5.39.46c4.52.85,8.48,3.12,10.67,7.21,2.73,5.11,2.9,11.22.79,16.58-2.35,5.94-8.63,8.8-14.86,8.86h-13.82s0-6.71,0-6.71Z"/>
      <polygon class="cls-1" points="270.13 41.52 261.18 41.53 261.17 15.12 253.45 15.11 253.45 8.48 277.77 8.48 277.78 15.16 270.12 15.16 270.13 41.52"/>
      <path class="cls-1" d="M58.69,5.02c0-2.52-2.02-4.95-4.61-4.96L5.46,0C2.73,0,.09,1.84.08,4.81L0,44.18c0,1.66.57,3.21,1.75,4.27,1.17,1.06,2.68,1.34,4.28,1.34l47.42-.03c2.98,0,5.25-2.29,5.25-5.16V5.02ZM10.17,31.14c-1.47-.25-2.91-.65-4.13-1.67l5.7-8.29,4.44-6.54,3.1-4.55c1.26-1.85,2.81-3.28,5.12-3.65.79-.13,1.57-.28,2.37-.09,1.28.31,2.52.74,3.5,1.71-1.28,2.31-2.77,4.28-4.22,6.44l-9.37,13.91c-1.29,1.91-4.24,3.11-6.5,2.73ZM43.32,41.69l-4.19.09-19.56-.02c-1.71,0-3.36-.82-4.6-1.79-1.78-1.37-3.04-4.15-2.69-6.47h24.22c3.61.64,6.05,2.61,6.68,6.19.11.65.33,1.12.14,1.99ZM52.28,35.34c-.15.63-6.55,2.78-9.87-1.99l-2.71-4.81-8.96-16.74c3.31-2.29,8.21-1.43,10.09,2.04l8,14.77,3.35,6.25c.09.18.14.32.1.49Z"/>
      <path class="cls-1" d="M227.69,31.49c-.12-3.54-2.14-6.23-5.6-7.26,3.3-1.31,4.79-4.27,4.71-7.55-.08-3.35-1.98-6.21-5.26-7.2-1.77-.67-3.57-1.03-5.54-1.02l-16,.04.04,33.05h15.26c1.83,0,3.51-.12,5.24-.59,4.65-1.11,7.31-4.53,7.14-9.45ZM215.03,14.73c1.78,0,3.13,1.08,3.35,2.74.23,1.7-.86,3.26-2.67,3.56l-1.96.17h-5.31s0-6.46,0-6.46h6.59ZM219.1,31.63c-.09,2.4-2.09,3.3-4.32,3.31l-6.35.03v-7.29s6.07.03,6.07.03c.85,0,1.69.16,2.44.41,1.45.65,2.23,1.89,2.17,3.52Z"/>
      <path class="cls-1" d="M194.68,13.95c-1.94-2.75-4.82-4.74-8.1-5.61-2.73-.73-5.51-.7-8.24-.13-5.31,1.1-9.42,4.96-11.03,10.09-.67,2.15-.97,4.19-.95,6.46.04,6.27,2.05,11.7,7.45,15.11,2.43,1.54,5.12,2.21,8.03,2.22,2.63.02,5.18-.35,7.56-1.64,2.04-1.11,3.75-2.47,5.07-4.31,2.01-2.78,2.97-6,3.2-9.44.29-4.33-.47-9.17-2.99-12.75ZM186.47,32.99c-.9,1.37-2.3,2.14-3.97,2.26-4.72.34-6.48-4.49-6.71-8.67-.19-3.4.14-7.41,2.25-10.06,2.11-2.65,6.22-2.54,8.15,0,.8,1.05,1.35,2.29,1.65,3.62.91,3.98.86,9.5-1.36,12.86Z"/>
      <path class="cls-1" d="M131.6,31.04l-3.02-9.08-4.56-13.48h-9.27s-6.33,19-6.33,19l-.78,2.34-3.95,11.7,7.56.02,1.8-5.82,11.29.03,1.79,5.79,8.95-.02-3.48-10.47ZM114.8,29.23l3.73-11.38,3.53,11.36-7.25.03Z"/>
      <path class="cls-1" d="M256.21,36.09l-9.29-27.61h-9.17s-3.07,9.18-3.07,9.18l-2.39,7.2-3.07,8.9-2.54,7.76h7.53s1.84-5.83,1.84-5.83l11.21.02,1.84,5.82,8.96-.03-1.85-5.41ZM237.73,29.23l1.25-3.92,2.46-7.48,3.57,11.39h-7.28Z"/>
    </g>
  </g>
</svg>