<?xml version="1.0" encoding="UTF-8"?>
<svg id="Capa_2" data-name="Capa 2" xmlns="http://www.w3.org/2000/svg" viewBox="0 0 155.61 76.04">
  <defs>
    <style>
      .cls-1 {
        fill: #005461;
      }
    </style>
  </defs>
  <g id="Capa_1-2" data-name="Capa 1">
    <g id="Capa_1-3" data-name="Capa 1">
      <g>
        <g>
          <path class="cls-1" d="M28.09,71.2v2.28h-2v-6.06h5.1v1.54h-3.1v.76h2.74v1.47h-2.74Z"/>
          <path class="cls-1" d="M33.71,67.43v6.06h-2.04v-6.06h2.04Z"/>
          <path class="cls-1" d="M36.58,70.73v2.75h-1.99v-6.06h1.68l2.3,2.75v-2.75h1.99v6.06h-1.67l-2.31-2.75Z"/>
          <path class="cls-1" d="M46.55,71.94v1.54h-5.09v-6.06h5.1v1.54h-3.1v.76h2.74v1.47h-2.74v.74h3.09Z"/>
          <path class="cls-1" d="M48.62,73.45c-.47-.11-.87-.27-1.18-.45l.65-1.48c.3.17.62.3.98.4s.7.15,1.03.15c.53,0,.79-.11.79-.33,0-.11-.06-.2-.18-.26-.1-.05-.22-.09-.37-.13-.15-.04-.35-.08-.6-.13-.03,0-.09-.02-.17-.03-.41-.08-.76-.2-1.05-.33s-.53-.32-.71-.57c-.18-.24-.27-.56-.27-.95s.11-.72.32-1.03c.21-.32.53-.57.95-.75.42-.18.94-.27,1.55-.27.42,0,.82.05,1.22.13s.75.22,1.06.39l-.62,1.48c-.59-.3-1.15-.45-1.69-.45-.25,0-.44.03-.58.1-.14.07-.21.16-.21.28,0,.05.01.1.04.14.03.04.07.08.14.11.11.05.24.1.4.13s.41.09.74.15c.4.08.74.19,1.04.32.29.14.53.33.71.58.18.25.27.56.27.93s-.1.72-.31,1.01c-.22.32-.54.57-.96.76-.42.18-.94.27-1.54.27-.5,0-.99-.06-1.46-.17h0Z"/>
          <path class="cls-1" d="M57.19,69.01v4.47h-2.04v-4.47h-1.77v-1.58h5.59v1.58h-1.78,0Z"/>
          <path class="cls-1" d="M62.11,73.48v-6.06h3.37c.54,0,.99.07,1.36.21s.64.33.82.58c.18.24.27.52.27.84s-.08.58-.25.82c-.14.19-.33.36-.58.49l.04.02c.33.14.57.32.71.57s.22.55.22.91c0,.52-.22.93-.66,1.2-.44.28-1.07.42-1.9.42h-3.41,0ZM64.12,68.85v.95h1.1c.22,0,.39-.04.5-.12.11-.08.17-.19.17-.34,0-.16-.06-.28-.17-.36-.11-.09-.28-.13-.5-.13h-1.1ZM64.12,71.14v.91h1.24c.23,0,.4-.03.5-.1.11-.07.16-.18.16-.33s-.06-.28-.17-.36-.28-.12-.5-.12h-1.24Z"/>
          <path class="cls-1" d="M73.75,71.94v1.54h-5.09v-6.06h2v4.51h3.09Z"/>
          <path class="cls-1" d="M76.89,72.25l-.48,1.24h-2.08l2.64-6.06h2.01l2.64,6.06h-2.11l-.48-1.24h-2.16,0ZM78.49,70.77l-.52-1.33-.52,1.33h1.04,0Z"/>
          <path class="cls-1" d="M84.2,70.73v2.75h-1.99v-6.06h1.68l2.3,2.75v-2.75h1.99v6.06h-1.67l-2.31-2.75h0Z"/>
          <path class="cls-1" d="M91.08,71.98v1.5h-2v-6.06h2v2.2l1.99-2.2h2.22l-2.42,2.66,2.54,3.39h-2.36l-1.52-2.01-.46.51h0Z"/>
          <path class="cls-1" d="M98.15,67.43v6.06h-2.04v-6.06h2.04Z"/>
          <path class="cls-1" d="M101.02,70.73v2.75h-1.99v-6.06h1.68l2.3,2.75v-2.75h1.99v6.06h-1.67l-2.31-2.75Z"/>
          <path class="cls-1" d="M107.94,73.4c-.41-.15-.77-.37-1.08-.65-.31-.29-.54-.63-.71-1.02-.17-.39-.25-.81-.25-1.27s.08-.88.25-1.27.4-.72.72-1.01c.31-.29.68-.5,1.1-.66.42-.15.87-.23,1.37-.23.6,0,1.13.1,1.6.3.47.2.86.49,1.17.87l-1.3,1.15c-.19-.22-.4-.39-.62-.5-.22-.11-.47-.16-.74-.16-.3,0-.56.06-.78.18-.22.12-.39.3-.51.52-.12.23-.18.49-.18.8s.06.56.18.79.29.41.51.53c.22.13.47.19.76.19.27,0,.51-.05.74-.15v-.44h-.82v-1.47h2.59v2.94c-.36.24-.78.43-1.25.57-.47.14-.93.2-1.39.2-.48,0-.93-.08-1.34-.23h0Z"/>
        </g>
        <g>
          <path class="cls-1" d="M60.61,45.32c-.47-.59-.76-1.47-.96-2.57-.2-1.1-.31-2.56-.31-4.36V2.97l-12.3-2.97v41.09c0,5.58,1.35,9.61,4.06,12.08,2.7,2.47,6.29,3.71,10.77,3.71,1.1,0,5.06-.16,6.98-.79.5-1.94.03-6.88-.79-9.51-.53.02-5.35,1.39-7.46-1.26h0Z"/>
          <path class="cls-1" d="M40.24,22.68c-.87-2.65-2.17-4.94-3.89-6.86-1.72-1.92-3.8-3.44-6.25-4.54-2.45-1.11-5.24-1.66-8.39-1.66-3.61,0-6.77.63-9.48,1.88-2.71,1.25-4.98,2.96-6.82,5.11-1.84,2.16-3.22,4.69-4.15,7.6-.57,1.79-1.04,4.18-1.26,6.18.62.91,18.31,26.18,18.31,26.18,1.49.19,3.55.33,5.24.33,5.71,0,10.84-.87,15.38-2.62-.06-1.86-.32-3.61-.79-5.24-.47-1.63-1.02-3.03-1.66-4.2-1.86.7-3.83,1.24-5.9,1.62-2.07.38-4.09.57-6.07.57-3.61,0-6.53-.79-8.74-2.36-2.21-1.57-3.44-4.11-3.67-7.6h29.01c.12-.64.22-1.5.31-2.58.09-1.08.13-2.17.13-3.28,0-3.03-.44-5.87-1.31-8.52h0ZM12.19,28.4c.29-2.97,1.19-5.27,2.71-6.9,1.52-1.63,3.73-2.45,6.64-2.45,2.56,0,4.56.86,5.99,2.58,1.43,1.72,2.2,3.98,2.32,6.77H12.19Z"/>
          <path class="cls-1" d="M87.47,9.65c-.65.08-1.31.17-1.98.27-2.56.41-5.12,1.05-7.68,1.92,0,1.86.2,3.46.61,4.8.41,1.34,1.02,2.76,1.83,4.27,3.55-1.22,6.89-1.83,10.03-1.83,1.45,0,2.78.09,3.97.26s2.2.51,3.01,1c.81.49,1.45,1.18,1.92,2.05.46.87.7,2.28.7,3.68v1.05c-2.04-.17-3.9-.26-5.58-.26-2.33,0-4.65.25-6.98.74-2.33.49-4.43,1.31-6.32,2.44-1.89,1.13-3.43,2.65-4.62,4.54-1.19,1.89-1.79,4.23-1.79,7.02s.48,5.15,1.44,7.07c.96,1.92,2.32,3.49,4.1,4.71,1.77,1.22,3.9,2.09,6.37,2.62,2.47.52,5.19.79,8.15.79,3.66,0,6.95-.29,9.86-.87,2.91-.58,5.38-1.19,7.41-1.83v-26.44c0-5.84-1.42-10.23-4.27-13.16l-20.18-4.82h0ZM99.88,46.57c-.64.12-1.4.25-2.27.39-.87.15-1.75.22-2.62.22-.76,0-1.64-.04-2.66-.13-1.02-.09-1.98-.32-2.88-.7-.9-.38-1.67-.97-2.31-1.79-.64-.81-.96-1.98-.96-3.49,0-2.27.83-3.91,2.49-4.93,1.66-1.02,3.91-1.53,6.76-1.53.64,0,1.36.04,2.18.13.81.09,1.57.19,2.27.31v11.51h0Z"/>
          <path class="cls-1" d="M144.43,23.25l-7.23,26.72-7.22-30.17-13.72-3.28,11.53,39.2c.46.12.99.17,1.57.17h1.83c.81,0,1.61-.01,2.4-.04.79-.03,1.5-.07,2.14-.13l-.99,4c-.47,1.69-.99,3-1.57,3.92s-1.21,1.61-1.88,2.05-1.35.7-2.05.79c-.7.09-1.4.13-2.09.13-.87,0-1.75-.07-2.62-.22-.87-.15-1.57-.31-2.09-.48-1.28,2.42-1.85,6.51-1.57,8.99,1.28.35,2.57.62,3.88.83s2.78.31,4.41.31c1.75,0,3.37-.16,4.88-.48,1.51-.32,2.88-.89,4.1-1.7s2.31-1.95,3.27-3.4c.96-1.46,1.79-3.28,2.49-5.49l11.72-39.04-11.18-2.67h0Z"/>
        </g>
      </g>
    </g>
  </g>
</svg>