<?xml version="1.0" encoding="UTF-8"?>
<svg id="Capa_2" data-name="Capa 2" xmlns="http://www.w3.org/2000/svg" viewBox="0 0 273.86 93.5">
  <defs>
    <style>
      .cls-1 {
        fill: #005461;
      }
    </style>
  </defs>
  <g id="Capa_1-2" data-name="Capa 1">
    <g>
      <rect class="cls-1" x="171.27" y="44.76" width="6.88" height="8.33"/>
      <polygon class="cls-1" points="169.54 70.97 157.16 70.99 157.17 63.8 164.05 29.37 157.74 29.36 157.74 21.13 169.52 21.13 169.54 27.61 162.66 62.45 169.53 62.47 169.54 70.97"/>
      <polygon class="cls-1" points="151.89 70.93 147.09 70.98 147.09 29.38 142.84 29.35 142.84 21.13 156.21 21.13 156.24 29.35 151.89 29.37 151.89 70.93"/>
      <path class="cls-1" d="M117.53,50.16c.17.59.31,1.47.3,2.08,0,.08-.28-1.46.07-1.45l.56-7,1.82-22.66,5.57.04.8,49.8h-4.3s-.25-28.72-.25-28.72c0-1,.27-1.88-.07-2.72l-2.59,31.44h-3.44s-2.44-28.73-2.44-28.73c-.13-.98-.04-1.78-.3-2.73l-.29,31.43-4.16.02.76-49.79,5.56-.04.62,7.35,1.76,21.68Z"/>
      <path class="cls-1" d="M117.9,50.79l-.07,1.45c-.33-.66-.24-1.31-.3-2.08l.37.64Z"/>
      <path class="cls-1" d="M142.64,58.88l-3.84-37.74h-5.55s-2.6,25.25-2.6,25.25l-2.55,24.58h4.9s.76-9.11.76-9.11l4.32.03.87,9.08h5.03s-1.34-12.1-1.34-12.1ZM134.41,54.39l1.24-16.61.12-2.54.05-1.61h.24c.16.53,0,1.07.05,1.7l1.33,19.05h-3.03Z"/>
      <rect class="cls-1" x=".09" y="79.19" width="99.98" height="14.31"/>
      <polygon class="cls-1" points="100.05 64.93 68.98 50.6 58.49 45.72 100.03 25.98 100.05 64.93"/>
      <rect class="cls-1" x="0" y="0" width="100.18" height="14.21"/>
      <rect class="cls-1" x="-20.2" y="40.96" width="51.86" height="11.45" transform="translate(-40.96 52.41) rotate(-89.99)"/>
      <rect class="cls-1" x="18.54" y="20.74" width="11.47" height="51.87"/>
      <rect class="cls-1" x="36.95" y="20.73" width="11.46" height="51.88"/>
      <path class="cls-1" d="M222.32,48.1c1.04-1.24,1.71-2.52,2.07-4.13,1.11-4.94,1.2-10.06.43-15.07-.25-1.59-.66-2.98-1.32-4.4-.92-1.8-2.57-3.33-4.68-3.33h-7.22s0,49.79,0,49.79h4.89s0-20.68,0-20.68c.45-.14.82-.13,1.27,0l1.82,12.79,1.18,7.9,5.19-.03-3.64-22.85ZM219.91,40.48c-.42,1.74-1.79,2.69-3.41,2.41v-14.36c1.71-.39,3.18.61,3.52,2.37.59,3.1.65,6.43-.11,9.58Z"/>
      <polygon class="cls-1" points="191.14 49.71 185.92 49.79 185.92 62.4 192.32 62.41 192.33 70.98 181.13 70.98 181.12 21.13 192.14 21.13 192.14 29.36 185.9 29.36 185.91 41.31 191.14 41.32 191.14 49.71"/>
      <path class="cls-1" d="M205.4,48.11c1.2-1.52,1.92-3.16,2.28-5.1.86-4.62.9-9.32.23-13.98-.26-1.82-.74-3.46-1.61-5.01-.99-1.77-2.73-2.89-4.8-2.89h-6.74s0,49.83,0,49.83h4.81s0-20.74,0-20.74c.57-.07.92-.09,1.32.07l2.98,20.69,5.21-.11-3.69-22.76ZM201.96,42.3c-.64.61-1.56.67-2.41.59v-14.34c1.62-.48,3.17.47,3.55,2.27.66,3.12.89,9.55-1.14,11.47Z"/>
      <polygon class="cls-1" points="254.23 52.11 257.55 70.95 252.3 70.97 248.93 50.52 247.52 55.79 247.52 70.95 242.6 70.97 242.6 21.15 247.48 21.14 247.62 41.4 252 21.17 257.21 21.13 252.31 41.28 254.23 52.11"/>
      <polygon class="cls-1" points="238.75 49.72 233.48 49.76 233.48 62.4 240.03 62.41 240.03 70.98 228.64 70.98 228.64 21.13 239.77 21.13 239.77 29.36 233.47 29.36 233.47 41.3 238.73 41.31 238.75 49.72"/>
      <path class="cls-1" d="M272.54,58.47l-3.85-37.33h-5.54s-.91,8.6-.91,8.6l-4.21,41.22h4.91s.76-9.11.76-9.11l4.3.04.88,9.08h4.99s-1.32-12.51-1.32-12.51ZM264.26,54.4l1.64-20.43,1.52,20.36-3.16.07Z"/>
    </g>
  </g>
</svg>