<?xml version="1.0" encoding="UTF-8"?>
<svg id="Capa_2" data-name="Capa 2" xmlns="http://www.w3.org/2000/svg" viewBox="0 0 222.1 69.16">
  <defs>
    <style>
      .cls-1 {
        fill: #005461;
      }
    </style>
  </defs>
  <g id="Capa_1-2" data-name="Capa 1">
    <g>
      <path class="cls-1" d="M187.6,0c-11.33,0-21.4,5.41-27.69,13.85h42.95c1.55-.04,3-.78,3-.78l-8.26,8.26c-3,2.92-7,3.07-7.37,3.07h-35.65c-.63,2.07-1.07,4.22-1.33,6.48h32.51c1.59,0,3.04-.78,3.04-.78l-8.15,8.15h0c-3.04,3.11-7.18,3.26-7.59,3.26h-19.4c3.22,15.73,17.18,27.66,33.88,27.66,19.1,0,34.58-15.48,34.58-34.58.07-19.1-15.4-34.58-34.51-34.58"/>
      <path class="cls-1" d="M86.12,27.1c0,4.78,3.52,8.26,7.85,8.26s7.81-3.48,7.81-8.26c0-3.81-3.52-7.33-7.81-7.33-4.33.04-7.85,3.52-7.85,7.33M109.25,27.06c0,8.96-6.44,15.29-15.33,15.29s-15.33-6.33-15.33-15.29c0-8.37,7.37-14.25,15.33-14.25s15.33,5.89,15.33,14.25M75.97,25.99c-.07,4.04-.37,7.52-2.81,10.96-2.74,3.78-6.81,5.44-11.44,5.44-8.7,0-14.77-5.92-14.77-14.62s6.11-14.92,15.03-14.92c5.7,0,10.11,2.59,12.51,7.77l-6.85,2.81c-1-2.63-3.07-4.41-6-4.41-4.74,0-7.22,4.52-7.22,8.74s2.59,8.66,7.33,8.66c3.11,0,5.52-1.63,5.81-4.81h-5.89v-5.66h14.29v.04ZM33.14,22.29h-.07l-2.96,8.81h6l-2.96-8.81ZM28.1,36.65l-1.93,4.81h-7.66l10.66-27.73h7.89l10.44,27.73h-7.7l-1.81-4.81h-9.89ZM8.66,19.84v4.63h10.14v6.11h-10.14v10.88H0V13.74h20.18v6.11h-11.51ZM136.1,41.47h-8.55l-6.07-10.59h-1.67v10.59h-7.22V13.74h12.74c5.48,0,9.63,2.59,9.63,8.52,0,3.81-2.15,7.15-6.07,7.85l7.22,11.37ZM119.81,26.18h2.81c2.37,0,5-.44,5-3.44s-2.63-3.44-5-3.44h-2.81v6.89Z"/>
    </g>
  </g>
</svg>