<?xml version="1.0" encoding="UTF-8"?>
<svg id="Capa_2" data-name="Capa 2" xmlns="http://www.w3.org/2000/svg" viewBox="0 0 193.71 76.56">
  <defs>
    <style>
      .cls-1 {
        fill: #005461;
      }
    </style>
  </defs>
  <g id="Capa_1-2" data-name="Capa 1">
    <g>
      <path class="cls-1" d="M153.29,48.74v17.87s-3.81-.01-3.81-.01c-.3-.58-.34-1.17-.45-1.88l-.5.41c-1.85,2.01-4.92,2.53-7.29,1.07-1.81-1.11-2.03-3.9-2.17-6.03v-11.43s4.74,0,4.74,0v10.83c.05.94.14,1.85.73,2.57,1.03,1.23,2.83.08,4.06-1.09v-12.31s4.67,0,4.67,0Z"/>
      <path class="cls-1" d="M189.34,34.12l-4.76.02v-18.02s4.02,0,4.02,0l.33,2.01c1.37-1.71,2.59-2.59,4.77-2.33v4.85c-1.79-.07-3.43.39-4.36,1.95v11.52Z"/>
      <rect class="cls-1" x="120.49" y="22.74" width="18.02" height="4.79" transform="translate(104.36 154.63) rotate(-89.99)"/>
      <path class="cls-1" d="M163.29,18.94c-1.04-2.41-3.45-3.69-6.02-2.98-1.2.33-2.22,1.07-3.1,1.93-.19-.67-.29-1.23-.58-1.76h-3.79s0,24.35,0,24.35h4.8s.05-7.47.05-7.47c1.63,1.32,3.51,1.73,5.36,1.08,1.69-.66,2.87-2.02,3.49-3.74.66-1.87.79-3.81.79-5.81,0-1.97-.24-3.83-1-5.6ZM159.29,27.63c-.13.72-.4,1.4-.97,1.9-1.22,1.07-2.68.23-3.7-1.03v-6.71c.44-.61,1.01-1.25,1.73-1.48,1.3-.42,2.49.28,2.8,1.57.45,1.89.48,3.82.14,5.74Z"/>
      <path class="cls-1" d="M167.26,48.4c-2.12-.43-4.2.44-5.57,2.07l-.45-1.71-3.89-.02v24.13s4.73,0,4.73,0l.03-7.41c2.17,2.01,5.15,1.93,7.24.04,2.02-1.83,2.48-5.41,2.47-8.18-.01-3.51-.8-8.17-4.56-8.92ZM165.88,62.11c-1.27,1.19-2.65.21-3.78-1.03v-6.83c1.12-1.25,2.65-2.19,3.81-1.03.55.56.87,1.36.97,2.17.26,1.95.3,5.51-1,6.72Z"/>
      <path class="cls-1" d="M175.27,30.59c-1.02.02-2.12-.1-2.83-.86-.78-.84-1.03-2.01-1.08-3.14h9.72s-.03-4.09-.03-4.09c0-1.27-.35-2.46-.91-3.6-1.61-3.05-5.65-3.72-8.75-2.66-2.37.81-3.81,2.96-4.33,5.39-.51,2.37-.57,4.78-.15,7.17.55,3.1,2.69,5.21,5.81,5.59,2.73.33,5.4-.19,7.84-1.41.14-.07.33-.3.29-.45-.26-1.05-.48-2.07-.94-3.05-1.62.61-3.06,1.03-4.65,1.12ZM171.81,21.2c.22-.97,1.06-1.63,2.03-1.68.92-.05,1.67.26,2.14,1.08.44.77.55,1.71.58,2.62h-5.21s.46-2.02.46-2.02Z"/>
      <path class="cls-1" d="M114.28,66.65h-4.17c-.19.01-.38.07-.52-.01-.22-.13-.06-.34-.06-.58v-17.3s3.98,0,3.98,0l.46,1.88c1.48-1.78,2.32-2.64,4.72-2.31l.04,2.32-.05,2.68c-.9,0-1.62-.06-2.44.2s-1.9.96-1.91,1.96l-.05,11.15Z"/>
      <path class="cls-1" d="M114.01,66.37l-4.23-.03v-17.3s3.53-.03,3.53-.03l.41,1.69c.63.3.96-.76,2.08-1.61.69-.52,1.63-.69,2.56-.54.28,1.2.12,4.34,0,4.47-.23.26-1.75-.2-3.05.65-.82.53-1.3,1.27-1.3,2.27v10.44Z"/>
      <path class="cls-1" d="M38.28,0C17.14,0,0,17.14,0,38.28s17.14,38.28,38.28,38.28,38.28-17.14,38.28-38.28S59.42,0,38.28,0ZM38.27,71.95c-18.6,0-33.67-15.08-33.67-33.67S19.68,4.61,38.27,4.61s33.67,15.08,33.67,33.67-15.08,33.67-33.67,33.67Z"/>
      <path class="cls-1" d="M52.3,45.01c.16-.31.19-.56.09-.78s-.34-.46-.67-.46h-12.59c-.67.01-1.44-.36-1.43-1.12v-7.55c.01-.54.69-.99,1.23-.99h26.08c.61,0,1.14.52,1.2,1.13.53,5.24-.29,10.51-2.6,15.27-3.09,6.37-8.88,11.46-15.46,13.97-10.06,3.84-21.48,1.6-29.42-5.67-2.66-2.43-4.86-5.37-6.4-8.66-3.27-6.99-3.57-14.93-.88-22.15,1.32-3.53,3.33-6.66,5.9-9.42,2.14-2.29,4.64-4.15,7.4-5.64,4.16-2.25,8.69-3.28,13.41-3.25,4.06.03,7.91.79,11.59,2.49,6.76,3.13,12.22,8.65,14.71,15.71.2.57-.03,1.41-.74,1.41h-12.29c-.36-.07-.67-.53-.85-.79-1.02-1.48-2.23-2.63-3.69-3.65-2.35-1.64-4.99-2.56-7.86-2.73-3.24-.19-6.26.57-9.03,2.21-8.26,4.91-10.51,15.92-4.4,23.51,4.17,5.19,10.98,7.34,17.38,5.29,2.13-.68,4-1.85,5.7-3.33,1.53-1.33,2.69-2.98,3.62-4.82Z"/>
      <path class="cls-1" d="M101.29,57.69c-.01-.2-.43-.22-.57-.22h-3.35c-.23,0-.46.13-.71-.01v-4.18s9.63-.02,9.63-.02l-.07,5.14c-.02,1.38-.31,2.66-.86,3.91-1.92,4.28-6.61,5.57-11,4.69-3.09-.62-5.45-2.84-6.28-5.88-.36-1.32-.5-2.63-.51-4.01v-4.1c-.01-1.67.14-3.27.64-4.85.81-2.57,2.69-4.56,5.26-5.37,1.84-.58,3.67-.59,5.55-.31,2.48.38,4.63,1.74,5.9,3.93.62,1.17,1.06,2.35,1.21,3.77l-4.99.03c-.74-2.37-2.28-3.68-4.8-3.42s-3.64,2.57-3.64,4.83v6.03c-.01.76.12,1.48.32,2.19.67,2.31,2.51,3.28,4.88,2.82,1.36-.26,2.45-1.12,2.92-2.43.28-.79.53-1.6.46-2.53Z"/>
      <path class="cls-1" d="M96.94,57.22l.03-3.7,9.03.03v5.07c0,.98-.3,1.88-.51,2.81l-.59,1.28c-1.23,2.65-4.55,4.31-7.46,4.29h-1.06c-1.73-.02-3.46-.47-4.92-1.49-.72-.51-1.33-1.18-1.89-1.87l-.55-.86c-.89-1.8-1.16-3.76-1.15-5.78v-4.32c0-1.7.15-3.3.74-4.9.83-2.22,2.54-3.89,4.78-4.71,1.51-.55,3.09-.63,4.69-.49,4.27.35,7.24,3.12,7.76,7.42l-4.5.02c-.36-1.31-1.1-2.32-2.24-3.06-1.44-.57-3.14-.67-4.51.15-1.47.87-2.12,2.97-2.11,4.74l.02,6.27c0,1.2.36,2.33,1.02,3.31.84,1.24,2.29,1.69,3.75,1.61,2.04-.12,3.74-1.49,4.06-3.51l.19-1.21c.06-.36.12-.74-.18-1.06l-4.4-.02Z"/>
      <path class="cls-1" d="M101.25,25.01l-4.57-.06v-4.16s9.58,0,9.58,0c.16.33.02.61.02.93l-.04,4.26c0,1.09-.28,2.1-.64,3.12-.88,2.53-2.86,4.43-5.47,5.16-4.69,1.31-10.05-.13-11.79-4.97-.42-1.16-.7-2.33-.69-3.58v-7.64c.02-1.05.4-2.02.74-3,1.54-4.39,6.22-5.81,10.66-5.13,4.1.62,6.55,3.79,7.03,7.8-.28.16-.53.04-.81.04l-4.2.04c-.56-2.31-2-3.75-4.43-3.67-1.4.05-2.53.68-3.18,1.95-.42.82-.76,1.72-.75,2.71v6.79c.02,1.01.29,1.97.78,2.82.71,1.23,2.06,1.82,3.47,1.81,2.91-.02,4.39-2.24,4.3-5.22Z"/>
      <path class="cls-1" d="M99.95,29.37c1.18-.99,1.69-2.99,1.44-4.53l-4.45-.08.02-3.69h9.04s-.04,5.26-.04,5.26c0,1.14-.41,2.21-.83,3.23-1.6,3.68-5.02,5.02-8.95,4.88-1.84-.06-3.64-.68-5.13-1.77l-1.24-1.25c-1.11-1.11-1.51-2.72-1.78-4.26l-.16-.93.04-8.5.29-1.34c.31-1.42.96-2.7,1.93-3.77,2.86-3.14,8.99-3.52,12.39-1.04,1.77,1.3,3.03,3.68,3.25,5.91l-2.59.07-1.92.04c-.31-.9-.58-1.75-1.26-2.44-.29-.29-.67-.65-1.09-.83-1.09-.46-2.38-.57-3.59-.22-1.32.39-2.31,1.72-2.57,3.03l-.3,1.53v6.47c0,1.65.47,3.45,1.8,4.45,1.67,1.25,4.09,1.1,5.7-.26Z"/>
      <path class="cls-1" d="M135.36,53.23c-.62-2.32-2.34-4.06-4.65-4.63-1.76-.43-3.56-.43-5.29.1-2.18.67-3.78,2.43-4.41,4.63-.83,2.91-.87,5.98-.05,8.87.66,2.32,2.31,3.99,4.64,4.56,2.74.67,6.26.25,8.16-1.91.89-1.01,1.45-2.13,1.72-3.42.58-2.71.59-5.53-.11-8.2ZM131.2,59.46c0,.78-.28,1.55-.7,2.18-1.02,1.54-3.16,1.75-4.44.44-.4-.41-.67-1-.8-1.55l-.23-.96v-3.33s.31-1.57.31-1.57c.11-.53.38-.87.67-1.26,1.09-1.44,3.67-1.25,4.51.25.37.67.71,1.47.7,2.27l-.02,3.54Z"/>
      <path class="cls-1" d="M136.71,34.24c-.51,0-.82.01-1.27-.11l.07-2.86,3.15-6.57,2.15-4.36c-.74-.15-1.35-.08-2.01-.02l-3.23-.07v-4.13s11.09,0,11.09,0v2.56s-5.45,11.37-5.45,11.37l5.68.04-.02,4.13-10.17.02Z"/>
      <path class="cls-1" d="M146.58,33.33c0,.29-.19.5-.45.5h-9.9c-.13,0-.45-.09-.43-.26.08-.72-.26-1.65.05-2.32l1.78-3.82,3.41-7.02c.05-.1,0-.25-.03-.3-.03-.06-.13-.12-.26-.11-1.67.12-3.28.18-5,.02l.02-3.59h10.48c.37.72.31,1.94-.07,2.74l-5.08,10.53c-.09.18-.16.28-.08.44.06.12.19.2.38.2h4.63c.33,0,.54.25.54.56l.02,2.43Z"/>
      <path class="cls-1" d="M123.58,20.43c-.35-1.15-.99-2.18-1.86-2.98-1.99-1.81-5.37-2.06-7.9-1.29-1.61.49-2.99,1.51-3.81,2.97-.7,1.26-.97,2.63-1.14,4.05-.29,2.34-.21,4.66.54,6.88,1.28,3.77,4.94,4.81,8.7,4.29,3.62-.5,5.43-3.42,5.9-6.94.31-2.36.27-4.71-.42-6.99ZM118.14,29.81c-.76.64-1.75.66-2.66.35-.77-.26-1.45-.93-1.71-1.86-.2-.71-.41-1.4-.42-2.15-.04-1.9.07-4.97,1.56-5.88.64-.39,1.45-.45,2.22-.35,1.15.14,1.89,1.14,2.15,2.25.51,2.22.55,6.23-1.14,7.64Z"/>
    </g>
  </g>
</svg>