<?xml version="1.0" encoding="UTF-8"?>
<svg id="Capa_2" data-name="Capa 2" xmlns="http://www.w3.org/2000/svg" viewBox="0 0 180.4 68.8">
  <defs>
    <style>
      .cls-1 {
        fill: #005461;
      }
    </style>
  </defs>
  <g id="Capa_1-2" data-name="Capa 1">
    <g id="MfVs0h">
      <g>
        <path class="cls-1" d="M0,67.77v-.68s9.79-26.05,9.79-26.05c.56-1.53,2.25-2.89,3.9-2.89l8.51.02-8.65,23.87,16.07.02-2.13,5.95-27.5-.24Z"/>
        <path class="cls-1" d="M180.4,45.08v.6s-3.27,5.2-3.27,5.2c-6.17-1.68-12.73-.06-14.79,5.49l-4.3,11.61-10.8-.03,8.3-22.68h10.67s-.46,2.22-.46,2.22c4.59-2.81,9.66-3.66,14.65-2.41Z"/>
        <path class="cls-1" d="M142.28,18.08c-23.98-4.47-49.77-1.63-73.24,4.81-8.65,2.38-16.53,5.63-24.4,9.77-6.65,3.49-13.76,7.83-14.83,15.09-.27,1.85-2.41,3.8-4.21,2.92-1.46-8.47,7.63-16.57,15.05-21.07,8.75-5.3,17.85-9.21,27.81-12.1,25.81-7.49,60.56-11.59,85.92-2.56,6.21,2.21,12.77,8.26,11.13,12.41-.5,1.27-1.86,2.54-3.62,3-2.85-7.95-11.35-10.73-19.6-12.27Z"/>
        <path class="cls-1" d="M59.56,51.12c-7.69-3.05-17.04,2.67-15.8,8.19.9,4.02,7.79,4.61,13.53,2.28l-2.5,5.56c-5.47,1.9-11.38,2.29-16.77.2-4.68-1.82-6.99-6.52-4.96-11.17,4.45-10.2,21.73-15.12,31.33-8.99-.04-.27.71-1.93,1.3-1.92l10,.04-8.26,22.65-10.69.02,5.22-11.34c.91-1.99-.04-4.59-2.4-5.52Z"/>
        <path class="cls-1" d="M147.09,56.35c-4.36,12.36-28.31,15.84-37.75,8.97-2.97-2.16-3.59-5.75-2.17-9.06,5.08-11.91,28.24-15.06,37.48-8.31,2.7,1.98,3.56,5.25,2.45,8.4ZM136.05,57.97c1.98-2.86.61-6.46-2.41-7.55-5.62-2.03-12.16-.13-15.63,4.75-.95,1.34-1.2,3.29-.7,4.66,1.96,5.28,13.62,5.52,18.73-1.85Z"/>
        <path class="cls-1" d="M101.75,61.51l-2.06,5.89c-9.4,3.02-25.18,1.2-25.14-7.71.05-11.41,21.03-18.2,32.94-13.91l-2.17,6.27c-6.02-3.79-14.15-2.36-18.57,3.19-.9,1.13-1.28,3.12-.93,4.3.4,1.35,1.9,2.53,3.31,3.1,4.31,1.29,7.69.57,12.63-1.13Z"/>
        <path class="cls-1" d="M82.01,8.02c-2.04.76-3.02,2.58-3.86,4.34-1.97.65-5.01-1.94-4.8-4.29.6-6.91,17.57-9.04,26.18-7.69,4.18.66,8.07,3.02,9.01,7.19-2.52.63-4.23-1.19-6.28-1.64-6.72-1.47-13.7-.33-20.24,2.09Z"/>
      </g>
    </g>
  </g>
</svg>