<?xml version="1.0" encoding="UTF-8"?>
<svg id="Capa_2" data-name="Capa 2" xmlns="http://www.w3.org/2000/svg" viewBox="0 0 140.5 144.8">
  <defs>
    <style>
      .cls-1 {
        fill: #005461;
      }
    </style>
  </defs>
  <g id="Capa_1-2" data-name="Capa 1">
    <g>
      <path class="cls-1" d="M130.63,108.89c-17.79,31.03-55.35,44.91-88.21,29.76-6.28-2.89-11.97-5.99-16.96-10.58l-4.28-3.93-4.15-4.64-3.23-4.34C-.25,96.28-3.62,70.72,3.91,48.43c3.19-9.45,8.07-17.4,14.54-24.95C27.2,13.27,39.92,5.91,52.85,2.13,58.92.35,65,.09,71.41,0c24.05-.33,47.28,14.18,59.35,35.06,1.86,3.22,3.37,6.71,4.79,10.16,3.54,8.61,5.95,24.1,4.53,33.19l-.54,3.48c-.72,4.58-1.34,9.02-3,13.54s-3.5,9.24-5.91,13.45ZM118.29,72.12c0-26.57-21.51-48.11-48.05-48.11s-48.05,21.54-48.05,48.11,21.51,48.11,48.05,48.11,48.05-21.54,48.05-48.11Z"/>
      <path class="cls-1" d="M89,87.99l-15.09-1.48-10.3-1.03-13.78-1.05-4.07-.82c.68-3.89.76-8.15,1.26-12.46l.88-7.56c1.02-8.82,1.18-16.86,2.01-26.29l4.62,5.91c.79,1.01,1.95,1.95,3.7,2.24l-5.72-7.19c-1.63-2.05-2.94-4.22-1.7-7.05l15.25,1.25,7.67.68c9.67.86,17.94,5.82,20.14,15.9,2.29,10.46-2.06,20.79-12.19,25.36l-9.96-12.8-10-11.92c-1.24-1.48-1.95-4.15-4.68-3.88l18.55,23.26,7.86,8.98,8.29,10.11-2.74-.18Z"/>
      <path class="cls-1" d="M94.3,109.86l-3.11,2.74-8.48-11.71,5.76-4.27c2.17-1.61,6.85-1.07,8.59.83s2.54,4.63,1.91,6.89c-.58,2.09-2.61,3.7-4.68,5.53ZM92.5,105.91c2.63-.98,2.53-3.46,1.39-4.7-1.34-1.46-3.13-1.78-4.77.35.75,1.27,2.36,3.38,3.38,4.35Z"/>
      <path class="cls-1" d="M105.51,89.47c1.22-.21,2.1-1.64,2.77-3.34.36-.93,3.14.16,3.47,1.13l-3.93,8.45-12.95-5.75,2.99-6.38c.26-.56.56-2.45,1.14-2.3l2.54.66c.7.18.03,2.41-.3,3.04l-.83,1.62c-.16.32.71.97,1.06.91.47-.08,1.29-.83,1.38-1.31l.43-2.42c.11-.6,2.43.36,2.81.88.6.81-.05,2.32-.56,4.8Z"/>
      <path class="cls-1" d="M43.6,101.13l-1.11-.88c-.33-.27-.92,1.12-.98,1.66l3.17,2.71-3.15,2.26c-2.18-3.73-6.42-6.28-6.07-6.66l1.24-1.36,9.04-8.66,6.4,7.08c-.91.91-2.06,1.91-2.72,2.18-1.02.41-2.89-3.77-3.68-2.71l-.83,1.11,3,3.07-2.27,1.62c-.48.34-1.58-1.06-2.04-1.42Z"/>
      <path class="cls-1" d="M63.01,107.95c-1.33-2.35-3.34-3.02-4.99-2.08-1.12.63-2.36,3.19-1.39,4.21,1.42,1.5,2.76,1.67,5.5,1.19l-2.32,4.99c-2.17-.16-5.09-1.32-6.31-2.95-1.68-2.25-2.45-5.21-1.38-7.88.87-2.17,3.4-4,4.81-4.43,3.26-.04,5.22.25,7.48,1.84l-1.4,5.11Z"/>
      <path class="cls-1" d="M71.44,110.23c-1.16-2.25-4.05-5.02-5.6-6.78l4.93-.75,3.03,3.38.68-3.44,6.12-.5c-3.28,6.18-4.83,7.99-3.84,15.54l-4.92.14-.4-7.58Z"/>
      <path class="cls-1" d="M42.22,83.97l-1.28-5.02c-.21-.81-.66-3.02-1.47-2.7l-12.85,4.97,1.33,4.64c1.63-.49,2.32-.67,4.57-.93l-3.33,3.72,1.7,5.65,3.72-6.1c2.2,1.66,4.21,2.12,6.04.96,1.43-.9,2.03-3.43,1.58-5.2ZM37.68,84.37c-1.02,0-1.85-.83-1.85-1.85s.83-1.85,1.85-1.85,1.85.83,1.85,1.85-.83,1.85-1.85,1.85Z"/>
    </g>
  </g>
</svg>