<?xml version="1.0" encoding="UTF-8"?>
<svg id="Capa_2" data-name="Capa 2" xmlns="http://www.w3.org/2000/svg" viewBox="0 0 175.26 82.47">
  <defs>
    <style>
      .cls-1, .cls-2 {
        fill: #005461;
      }

      .cls-2 {
        fill-rule: evenodd;
      }
    </style>
  </defs>
  <g id="Capa_1-2" data-name="Capa 1">
    <g>
      <path class="cls-1" d="M11.12,7.1v41.58c1.51,15.48,11.45,27.44,23.47,27.44,4.55,0,8.8-1.72,12.41-4.68-4.97,6.79-11.98,11.03-19.75,11.03-14.61,0-26.53-14.95-27.25-33.75V0l11.12,7.1Z"/>
      <path class="cls-1" d="M49.46,15.53v26.12c-.61,11.32-7.48,18.92-15.77,18.92-3.14,0-6.07-1.18-8.56-3.23,3.43,4.68,8.26,7.6,13.62,7.6,10.07,0,18.7-10.08,18.79-23.27V10.64l-8.08,4.89Z"/>
      <path class="cls-1" d="M25.08,23.45v18.67c0,7.71,5.01,12.31,10.6,12.83-3.56-1.43-6.63-6.41-6.84-12.48v-21.12l-3.76,2.11Z"/>
      <path class="cls-1" d="M89.75,64.87h-7.36v-1.99c-.73.72-1.62,1.28-2.67,1.67-1.05.39-2.07.59-3.08.59-2.27,0-4.13-.69-5.57-2.08-.96-.94-1.61-1.97-1.95-3.09-.35-1.11-.52-2.41-.52-3.88v-15.6h7.54v14.6c0,1.22.33,2.09.98,2.59.65.5,1.34.75,2.06.75s1.4-.25,2.06-.74c.65-.49.98-1.36.98-2.6v-14.6h7.54v24.37"/>
      <path class="cls-1" d="M114.45,42.48l-5.7,5.71c-.42-.41-.82-.73-1.21-.94-.39-.21-.89-.32-1.5-.32-.7,0-1.38.25-2.04.76-.66.51-.99,1.37-.99,2.6v14.58h-7.54v-24.37h7.36v1.99c.63-.62,1.46-1.15,2.48-1.59,1.03-.44,2.14-.66,3.36-.66s2.29.17,3.19.51c.9.34,1.77.92,2.6,1.75Z"/>
      <path class="cls-2" d="M127.81,52.68c0-1.41-.07-2.51-.21-3.28-.14-.77-.44-1.37-.89-1.78-.45-.46-1.12-.69-2.03-.69s-1.56.23-2.02.69c-.45.44-.75,1.07-.89,1.89-.14.82-.21,1.88-.21,3.17s.07,2.35.21,3.15c.14.8.44,1.44.89,1.91.47.46,1.14.69,2.02.69s1.57-.23,2.03-.67c.45-.45.75-1.05.89-1.82.14-.76.21-1.85.21-3.26ZM135.35,52.68c0,2.4-.19,4.29-.58,5.65-.39,1.37-1.09,2.59-2.11,3.68-1.99,2.08-4.65,3.12-7.97,3.12s-5.99-1.04-7.95-3.12c-.67-.71-1.21-1.48-1.62-2.32-.4-.84-.69-1.8-.85-2.89-.16-1.09-.25-2.46-.25-4.13s.08-3.02.25-4.1c.17-1.09.45-2.04.85-2.88.4-.83.94-1.62,1.62-2.36.87-.9,1.95-1.64,3.26-2.24,1.3-.59,2.87-.89,4.69-.89s3.4.29,4.71.87c1.31.58,2.4,1.33,3.27,2.25,1.02,1.09,1.72,2.32,2.11,3.7.39,1.37.58,3.25.58,5.64Z"/>
      <path class="cls-1" d="M151.64,64.87h-4c-1.72,0-3.16-.35-4.31-1.05-1.15-.7-2-1.61-2.55-2.72-.55-1.11-.82-2.26-.82-3.44v-25.05h7.54v24.52c0,.99.5,1.48,1.5,1.48h2.63v6.25Z"/>
      <path class="cls-2" d="M167.71,55.7v-.62h-3.82c-.72,0-1.3.18-1.73.53-.43.35-.65.83-.65,1.42s.22,1.06.65,1.45c.44.39,1.04.59,1.82.59.73,0,1.32-.05,1.75-.17.44-.11.85-.36,1.26-.74.48-.46.72-1.28.72-2.46ZM175.26,64.87h-7.34v-1.99c-.82.78-1.63,1.35-2.42,1.69-.79.35-1.83.52-3.1.52-2.49,0-4.46-.72-5.93-2.17-1.45-1.43-2.18-3.34-2.18-5.72,0-1.3.3-2.48.9-3.55.6-1.07,1.53-1.92,2.79-2.57,1.27-.65,2.84-.98,4.73-.98h5.01v-.62c0-1.11-.29-1.89-.87-2.34-.58-.45-1.53-.67-2.87-.67-.93,0-1.67.12-2.21.35-.55.23-1.13.65-1.74,1.25l-4.69-4.61c1.29-1.25,2.59-2.11,3.89-2.56,1.31-.46,3.02-.68,5.13-.68,3.56,0,6.27.73,8.12,2.2,1.85,1.47,2.77,3.68,2.77,6.63v15.82h0Z"/>
    </g>
  </g>
</svg>