<?xml version="1.0" encoding="UTF-8"?>
<svg id="Capa_2" data-name="Capa 2" xmlns="http://www.w3.org/2000/svg" viewBox="0 0 107.91 107.9">
  <defs>
    <style>
      .cls-1 {
        fill: #005461;
      }
    </style>
  </defs>
  <g id="Capa_1-2" data-name="Capa 1">
    <g>
      <path class="cls-1" d="M102.98,50.89c0-4.34-.67-8.65-1.79-12.82l-1.67-5.08-1.48-3.47-1.84-3.54c-1.13-2.03-2.42-3.95-3.84-5.8-3.38-4.41-7.42-8.2-12-11.33C72.63,3.59,63.63.54,54.3.08l-1.14-.02s-.06-.04-.05-.06h-3.37C31.91.19,15.12,10.66,6.4,26.33,2.49,33.35.05,41.73,0,49.52v1.41s10.15.01,10.15.01c.07,0,.15,0,.18,0,.02,0,.02-.05.02-.11.21-13.6,7.44-26.18,18.71-33.66,4.44-2.94,9.41-4.96,14.63-5.97,9.48-1.83,19.26-.26,27.66,4.49,3.1,1.75,5.96,3.89,8.53,6.35l2.72,2.88c6.29,7.28,10.01,16.9,10.01,26.56v26.46s10.15,0,10.15,0c.08,0,.15,0,.19-.02.02-.01.03-.04.03-.13l-.02-26.9ZM16.35,26.47c-.51.5-1.25.62-1.9.25l-.55-.42.81-1.07c.23.16.43.38.72.43.26.04.49-.12.62-.3.15-.21.22-.49.09-.73-.24-.45-.74-.52-1.2-.35l-1.45.55c-.6.23-1.17.12-1.67-.26-.66-.49-.91-1.31-.54-2.07.5-1.02,1.5-1.9,2.51-1.28l.48.35-.78.99c-.23-.15-.43-.33-.7-.31-.33.03-.64.41-.58.75.1.53.66.75,1.12.55l1.29-.55c.8-.34,1.6-.21,2.19.41.95.99.46,2.14-.47,3.04ZM19.3,22.73l-1.71-1.58-4.02-1.6.94-1.01,2.58,1.11-1.23-2.56.92-.95,1.5,3.54c.11.21.17.45.34.61l1.54,1.48-.87.94ZM23.77,18.41c-.65.96-1.92,1.75-2.9.91l-.51-.53.99-.89c.24.24.41.52.74.58.34.06.74-.26.78-.62.05-.56-.47-.96-.99-.88l-1.48.25c-.72.12-1.33-.16-1.78-.72-.41-.51-.55-1.16-.22-1.76.34-.61.9-1.08,1.56-1.32.7-.26,1.33.12,1.77.77l-1.01.82c-.18-.2-.34-.43-.61-.47-.34-.05-.7.28-.7.62,0,.54.49.84.99.76l1.51-.25c.74-.12,1.36.19,1.79.78.44.59.52,1.32.08,1.95ZM26.19,16.47l-2.96-4.32-1.19.82-.61-.86,3.44-2.4.6.85-1.19.85,2.97,4.33-1.06.74ZM28.97,14.56l-3.01-5.51,2.97-1.69.45.88-1.83,1.05.73,1.35,1.71-.95.46.84-1.7.96.84,1.6,1.95-1.09.43.88-3.01,1.69ZM37.2,10.6l-1.73-4.4.6,4.85-1.13.47-2.76-3.91,1.64,4.35-1.12.46-2.25-5.82,1.88-.77,2.46,3.52-.51-4.3,1.79-.69,2.3,5.79-1.16.44ZM44.09,8.84c-.5.26-1.05.36-1.62.31-1.33-.11-1.58-1.41-1.81-2.56-.13-.66-.26-1.29-.27-1.96,0-.81.44-1.48,1.2-1.73.91-.3,1.88-.34,2.36.51.19.34.3.7.35,1.07l-1.24.24c-.06-.31-.11-.62-.3-.85-.16-.19-.4-.21-.62-.14-.48.15-.52.8-.41,1.37l.41,2.07c.11.54.38,1.03.89,1,.21-.02.46-.15.53-.42.08-.31.01-.6-.05-.93l1.24-.24c.27.86.15,1.82-.66,2.25ZM46.01,8.53l-.52-6.2,3.36-.28.09.95-2.1.18.14,1.5,1.91-.15.09.95-1.91.17.13,1.78,2.17-.17.05.97-3.42.28ZM53.06,8.27c-.13-.28-.14-.58-.14-.89v-1c-.01-.39-.31-.68-.7-.68h-.56s-.03,2.53-.03,2.53l-1.28-.03.08-6.2,2.53.06c.51.01.94.29,1.17.73.21.55.21,1.15.02,1.7-.2.42-.53.62-1.02.73.59.07,1.02.38,1.05.95l.06,1.05c.02.36.03.67.14,1.07h-1.31ZM57.98,3.49l-.59,5.13-1.28-.15.58-5.13-1.4-.18.11-1.03,4.13.48-.12,1.05-1.43-.18ZM59.45,8.97l1.21-6.12,1.3.26-1.21,6.12-1.3-.26ZM63.79,7.17l-.73,2.63-1.24-.35,1.66-5.99,3.14.87-.24.94-1.91-.53-.42,1.5,1.79.53-.27.94-1.77-.54ZM65.6,10.63l2.1-5.9,1.24.44-2.1,5.9-1.24-.44ZM70.35,12.63c-.54-.11-1.02-.36-1.43-.73-.71-.65-.6-1.66-.2-2.52l.83-1.8c.12-.27.3-.5.49-.73.77-.92,2.08-.62,2.95.08.73.59.6,1.45.19,2.3l-1.16-.55c.14-.32.31-.65.2-.99-.07-.24-.34-.34-.54-.35-.64-.02-1.03.95-1.35,1.65-.35.76-.96,1.95-.47,2.4.17.16.45.27.7.11.3-.19.44-.51.58-.85l1.21.5c-.38.92-1.01,1.68-2.01,1.47ZM75.03,15.3l.36-1.43-1.53-.93-.96,1.01-1.1-.67,4.62-4.48,1.41.83-1.68,6.38-1.12-.71ZM77.01,16.7l3.11-4.18-1.15-.9.63-.83,3.32,2.51-.66.85-1.11-.84-3.08,4.15-1.06-.75ZM79.64,18.8l4.17-4.73.99.87-4.17,4.73-.99-.87ZM83.42,22.48c-.49-.3-.93-.73-1.15-1.27-.25-.61-.09-1.32.32-1.85.68-.86,1.48-1.62,2.37-2.25,1.03-.72,2.11-.19,2.82.79.49.68.46,1.52-.05,2.19-.64.84-1.4,1.56-2.25,2.23-.61.48-1.41.54-2.06.15ZM87.75,27.95l-.95-1.26,2.43-4.1-3.47,2.67-.74-.98,4.05-3.12.92-.67,1.02,1.36-2.33,3.89,3.3-2.49.73.99-4.97,3.73Z"/>
      <path class="cls-1" d="M98.95,103.47c.03-.05.1-.06.18-.08,1.88-.46,2.93-1.83,3.2-3.66l.02,3.73h-3.39Z"/>
      <path class="cls-1" d="M77.29,39.33c2,4.27,2.99,8.88,2.83,13.54-.08,2.3-.45,4.52-1.07,6.73-.92,3.26-2.39,6.31-4.4,9.04-5.03,6.84-12.8,11.26-21.33,11.73h-3.41c-3.42-.22-6.76-1.02-9.89-2.43-3.37-1.52-6.4-3.67-8.94-6.34s-4.42-5.53-5.79-8.81c-3.43-8.24-2.78-17.69,1.75-25.38,1.53-2.6,3.45-4.94,5.69-6.95,2.52-2.25,5.43-3.99,8.57-5.24s6.21-1.8,9.46-1.92c2.19-.08,4.34.14,6.49.56,5.44,1.06,10.36,3.75,14.33,7.58.03.03.07.06.06.07s-.03.03-.07.07l-18.05,18.07-2.04,2.07-4.84-4.88-3.94-3.97c-.06-.03-.12.02-.07.11l-.02,13.34,8.85,8.86,7.16-7.2,18.65-18.67Z"/>
      <path class="cls-1" d="M3.45,64.15c-2.07.04-2.79-2.05-2.73-3.88.22-1.55,1.21-1.95,2.64-2.26l.42,1.99c-.31.05-.6.1-.89.2-.45.17-.68.58-.62,1.05.06.5.43.88.94.89.6.01,1.09-.34,1.3-.9l.76-2.07c.44-1.2,1.46-1.77,2.72-1.85,2.04-.13,2.9,2.05,2.7,3.89-.08.74-.53,1.32-1.19,1.61-.38.17-.77.26-1.2.35l-.42-1.93.77-.22c.2-.06.39-.21.47-.43.14-.39.01-.91-.35-1.15-.59-.39-1.3-.08-1.6.53l-.76,2.03c-.54,1.44-1.33,2.12-2.98,2.15Z"/>
      <path class="cls-1" d="M21.66,93.63l4.13-5.71c-.66.06-1.25.06-1.87-.06l1.05-1.5c.8.15,1.59.08,2.37-.17l1.39.98-5.5,7.64-1.59-1.18Z"/>
      <rect class="cls-1" x=".18" y="54.09" width="9.56" height="2.01" transform="translate(-4.95 .67) rotate(-5.17)"/>
      <path class="cls-1" d="M12.06,65.39c-.43-.76-1.18-1.21-2.05-1.27-.51-.03-1,.05-1.5.18-1.46.39-3.48,1.1-4.68,1.95-.69.49-1.06,1.22-1.02,2.08.04.93.37,1.83.92,2.58.38.53.95.8,1.59.85,1.5.13,3.87-.82,5.32-1.49.4-.18.74-.4,1.09-.65,1.37-1.01,1.11-2.85.33-4.23ZM9.11,68.75c-1.04.42-2.06.8-3.19,1.04-.36.08-.72.09-1.02-.09-.4-.23-.6-.79-.44-1.22.13-.36.44-.59.78-.76,1.3-.62,2.63-1.11,4.01-1.51.79-.22,1.51-.17,1.78.59.38,1.09-.87,1.54-1.92,1.96Z"/>
      <path class="cls-1" d="M20.24,79.74c-.32-.62-.78-1.15-1.38-1.51-.55-.34-1.22-.35-1.82-.12-1.28.48-3.42,2.51-4.45,3.6-.82.87-1.34,1.93-.75,3.01.28.51.65.96,1.13,1.29,1.08.73,2.23.22,3.24-.52,1.13-.83,2.18-1.72,3.14-2.75.79-.85,1.43-1.93.88-3ZM18.03,81.41l-2.85,2.51c-.58.51-1.29,1.08-1.76.58-.38-.41-.1-.94.36-1.35l3.08-2.75.96-.67c.25-.18.58-.12.78.07.5.47,0,1.13-.57,1.62Z"/>
      <path class="cls-1" d="M22.82,82.44c-.61-.32-1.29-.32-1.9,0-.52.28-.97.61-1.4,1.03-1.04,1-1.98,2.06-2.82,3.22-.63.87-.84,2.01-.17,2.88.28.36.6.66.98.92,1.22.82,2.48.18,3.5-.76.99-.92,1.9-1.89,2.73-2.95.31-.4.55-.81.71-1.29.44-1.29-.46-2.46-1.62-3.05ZM22.75,84.91l-.57.8-2.64,2.83c-.46.49-1.04.94-1.51.56-.44-.36-.17-.98.25-1.45l2.14-2.39c.41-.46.83-.89,1.33-1.25.28-.21.64-.2.88.01.25.22.34.59.13.89Z"/>
      <path class="cls-1" d="M15.83,73.83c-.6-.57-1.41-.73-2.21-.46-1.27.43-3.05,1.68-2.94,3.09.07.91.8,1.67,1.7,1.8l-1.76,1.14c-.31.2-.69.25-1,.06-.2-.13-.32-.33-.33-.54-.01-.21.09-.39.26-.54l.37-.3-1.11-1.55-.56.48c-.59.6-.78,1.44-.45,2.2.29.67.73,1.25,1.34,1.66,1.09.72,2.48.05,3.56-.6,1.23-.74,3.04-1.95,3.81-3.09.8-1.18.31-2.43-.68-3.37ZM15.17,76.13c-.47.49-1.35,1.31-1.98,1.31-.41,0-.74-.29-.74-.68,0-.29.17-.56.39-.75.46-.41.97-.78,1.54-1.02.33-.14.69,0,.87.24.2.28.16.64-.09.9Z"/>
      <path class="cls-1" d="M107.91,103.47v.65s-.04.11-.04.11h-4.77s0,3.6,0,3.6l-.11.06h-.67s0-3.79,0-3.79h-46.83c-.04-.22-.02-.42-.01-.64h13.17s.04-.1.04-.1h4.75s.06.11.06.11h8.33s.04-.11.04-.11h6.11s.06.11.06.11h5.96s.04-.1.04-.1h4.85s.06.1.06.1l.62-.11,2.67-.02v-2.73s.09-.89.09-.89l-.11-.04v-1.96s.1-.06.1-.06l.02-2.96v-12.66c.23-.05.43-.05.67,0v21.41s4.91,0,4.91,0Z"/>
      <polygon class="cls-1" points="107.91 104.13 107.91 107.9 102.99 107.89 103 104.11 107.91 104.13"/>
      <path class="cls-1" d="M52.89,4.28c-.1.28-.34.44-.62.43l-.59-.02.03-1.72h.68c.52.01.71.73.51,1.3Z"/>
      <path class="cls-1" d="M84.54,21.37c-.3.23-.65.25-.92.06s-.38-.53-.23-.87c.11-.25.26-.5.47-.69l1.85-1.72c.24-.22.59-.27.86-.12.23.12.47.38.41.71s-.26.59-.49.83c-.61.64-1.24,1.25-1.95,1.8Z"/>
      <polygon class="cls-1" points="75.67 12.87 74.59 12.24 76.45 10.3 75.67 12.87"/>
      <path class="cls-1" d="M88.04,103.47h-6.21s-.02-.04-.06-.05c-1.48-.31-2.63-1.32-3.18-2.73-.33-.86-.52-1.71-.61-2.66-.19-2.18-.21-4.35-.01-6.52.09-1,.27-1.91.6-2.84.53-1.49,1.68-2.6,3.21-3.06s3.14-.46,4.65-.03c1.74.5,2.99,1.89,3.31,3.65.11.59.14,1.14.12,1.74h-3.68c-.01-1.39-.32-2.82-1.76-2.96-1.16-.11-1.92.3-2.29,1.43-.21.63-.32,1.27-.38,1.95-.17,2.18-.17,4.35.02,6.54.06.68.17,1.3.42,1.91.65,1.57,2.47,1.3,3.96.83v-3.86s-2.01,0-2.01,0v-2.8s5.71,0,5.71,0v9.11s-1.82.36-1.82.36Z"/>
      <path class="cls-1" d="M102.32,97.68v2.05c0,1.88-1.51,3.54-3.37,3.74h-4.95s-.07-.06-.13-.08c-1.16-.25-2.07-1-2.55-2.09-.27-.58-.43-1.19-.44-1.83l-.03-1.61h3.76c-.04,1.29,0,2.72,1.3,3.07.92.21,2.03.02,2.42-.83.46-1.01.18-2.12-.64-2.84-.36-.31-.74-.55-1.15-.8l-2.79-1.68c-.67-.4-1.22-.91-1.71-1.5-.95-1.14-1.09-2.93-.79-4.37.32-1.53,1.38-2.71,2.87-3.2,1.99-.65,5.04-.71,6.73.65,1.21,1.06,1.42,2.67,1.38,4.28h-3.65c-.04-1.03-.16-2.24-1.1-2.55-1.05-.32-2.24.03-2.5,1.12-.14.6-.11,1.22.22,1.75.29.47.7.82,1.18,1.09l2.4,1.34c1.72.96,3.29,2.17,3.52,4.22,0,.04.03.06.04.06Z"/>
      <path class="cls-1" d="M73.5,103.47h-4.85s-.04-.05-.1-.06c-1.26-.25-2.26-1.1-2.71-2.3-.2-.5-.35-1-.36-1.54l-.03-1.7h3.75c-.04,1.3.02,2.76,1.35,3.07.74.18,1.83,0,2.22-.58.6-.9.49-2.08-.25-2.87-.34-.37-.7-.62-1.13-.88l-2.9-1.73c-.7-.42-1.29-.93-1.82-1.55-.95-1.14-1.1-2.92-.83-4.37.3-1.58,1.4-2.81,2.95-3.28,2.11-.65,5.42-.7,6.99,1.01.91,1.11,1.06,2.48,1.05,3.95h-3.66c-.04-1.03-.15-2.26-1.1-2.56-.87-.27-2-.04-2.37.79-.57,1.29.03,2.46,1.23,3.14l2.26,1.27c1.45.82,2.99,1.85,3.49,3.51.4,1.33.38,2.73-.07,4.03s-1.5,2.22-2.85,2.53c-.1.02-.21.04-.27.1Z"/>
    </g>
  </g>
</svg>