<?xml version="1.0" encoding="UTF-8"?>
<svg id="Capa_2" data-name="Capa 2" xmlns="http://www.w3.org/2000/svg" viewBox="0 0 258.01 201.92">
  <defs>
    <style>
      .cls-1 {
        fill: #8fd2d3;
      }

      .cls-2 {
        fill: #14b2b4;
      }

      .cls-3 {
        fill: #e7f2f6;
      }

      .cls-4 {
        fill: #13b2b4;
      }

      .cls-5 {
        fill: #12b2b3;
      }

      .cls-6 {
        fill: #fbf5f5;
      }

      .cls-7 {
        fill: #fcf8f8;
      }

      .cls-8 {
        fill: #ca6d68;
      }

      .cls-9 {
        fill: #039b9b;
      }

      .cls-10 {
        fill: #0bb0b2;
      }

      .cls-11 {
        fill: #a10202;
      }
    </style>
  </defs>
  <g id="Capa_1-2" data-name="Capa 1">
    <g id="dTNsR3.tif">
      <g>
        <path class="cls-3" d="M0,0h258.01v201.92H0V0ZM85.95,44.91l-1.3.22-12.91.1.03,98.79,98.83.04v-12.67s.26-1.51.26-1.51h13.96V30.99h-98.89v13.93ZM81.76,169.59c2.09-.67,3.18-2.22,3.51-3.92.37-1.95-.48-3.61-1.97-4.85-2.28-1.89-5.85-2.27-6.45-3.79-.65-1.64,3.73-1.91,4.98-1.21.44.25,1.66.68,2.03.1.5-.78.28-2.15,0-2.98-1.86-.72-3.7-.58-5.62-.63-2.06-.05-3.74.44-5.25,1.97-1.58,1.6-1.75,4.54-.09,6.33,1.28,1.38,3.31,1.84,4.86,2.75l1.51.88c.48.28.74.55.8.94.06.36.04.86-.33,1.08-2.47,1.45-4.86-.32-7.54.06-.19,1.19-.25,2.24.2,3.43l5.45.69c1.26.16,2.64-.45,3.9-.86ZM92.69,152.37h-5.29s0,17.61,0,17.61h5.29s0-17.61,0-17.61ZM101.69,162.7l5.98-.23c1.01-.04,1-2.84,0-2.88l-5.99-.26c-.27-1.1-.27-2.26,0-3.42l7.35-.15c.24-1.14.35-2.31-.26-3.33l-11.06-.07c-.52,0-1.09.34-1.09.92v15.81c0,.43.4.89.83.89l11.61-.05c.64-1.12.62-2.51.03-3.57l-7.53-.11c-.08-1.21-.16-2.39.12-3.55ZM127.95,169.98l5.38-.06v-17.45s-6.05-.04-6.05-.04c-.6,0-.98.89-1.18,1.37l-1.56,3.73c-.64,1.52-.93,3.06-1.98,4.42l-3.13-8.06c-.33-.85-.5-1.57-1.65-1.57h-5.01c-.51,0-1.1.4-1.1.95l-.02,15.58c0,.67.43,1.26,1.12,1.22l3.13-.18.26-9.42,3.85,9.23c.53,1.27,2.65,1.08,3.69.36,1.15-1.76,1.57-3.68,2.38-5.59l1.72-4.09.15,9.6ZM148.32,162.35c.76-.47.46-2.27.06-2.84l-5.97-.16c-.27-1.15-.28-2.27.01-3.43l7.09-.17c.19-.9.31-1.88.01-2.74-.18-.52-1.09-.63-1.61-.63h-9.75c-.67,0-1.16.46-1.15,1.14v15.33c0,.69.47,1.15,1.16,1.15l11.36-.08c.59-1.06.52-2.32.13-3.5l-7.34-.14c-.12-1.21-.19-2.44.1-3.5l5.91-.42ZM166.28,169.93c.54,0,.78-.66.78-1.08l-.06-16.05c-1.14-.67-2.54-.64-3.62,0l-.32,9.91-5.62-10.11c-2.02-.33-4.63-.53-5.63.39l-.05,16.7c1.38.45,2.76.43,4.07.1l.03-9.69c1.23.75,1.49,2.07,2.09,3.18l3.58,6.65h4.75ZM183.38,166.54c.77-2.28.11-4.7-2.04-5.96l-2.26-1.32c-1.19-.7-4.23-1.17-3.7-2.87.34-1.08,2.96-1.09,4.64-.69.54.13,1.64.9,2.15.2.39-.64.37-2.51-.25-2.95-1.42-.85-3.22-.55-4.78-.62-4.23-.17-7.14,1.98-7.04,5.44.05,1.59,1.11,3.1,2.61,3.97.69.4,1.29.96,2.09,1.14,3.06.7,4.85,2.69,3.52,3.33-3.16,1.51-5.04-.29-7.82.14-.13,1-.39,2.46.27,3.18.56.61,1.83.29,2.43.48,3.34,1.03,8.99.02,10.18-3.47Z"/>
        <path class="cls-2" d="M166.28,169.93h-4.75s-3.58-6.65-3.58-6.65c-.6-1.11-.86-2.43-2.09-3.18l-.03,9.69c-1.32.33-2.69.35-4.07-.1l.05-16.7c.99-.93,3.61-.72,5.63-.39l5.62,10.11.32-9.91c1.08-.63,2.48-.66,3.62,0l.06,16.05c0,.42-.24,1.08-.78,1.08Z"/>
        <path class="cls-4" d="M148.32,162.35l-5.91.42c-.29,1.06-.22,2.29-.1,3.5l7.34.14c.39,1.18.47,2.44-.13,3.5l-11.36.08c-.69,0-1.16-.46-1.16-1.15v-15.33c0-.68.48-1.15,1.15-1.15h9.75c.53,0,1.43.12,1.61.64.3.85.18,1.84-.01,2.74l-7.09.17c-.3,1.17-.28,2.29-.01,3.43l5.97.16c.4.56.7,2.37-.06,2.84Z"/>
        <path class="cls-5" d="M101.69,162.7c-.28,1.16-.2,2.34-.12,3.55l7.53.11c.59,1.06.61,2.44-.03,3.57l-11.61.05c-.42,0-.83-.46-.83-.89v-15.81c0-.58.57-.92,1.09-.92l11.06.07c.61,1.02.5,2.18.26,3.33l-7.35.15c-.27,1.16-.27,2.32,0,3.42l5.99.26c.99.04,1,2.84,0,2.88l-5.98.23Z"/>
        <path class="cls-2" d="M81.76,169.59c-1.26.41-2.64,1.02-3.9.86l-5.45-.69c-.45-1.18-.39-2.24-.2-3.43,2.68-.38,5.07,1.39,7.54-.06.37-.22.38-.71.33-1.08-.06-.4-.31-.66-.8-.94l-1.51-.88c-1.55-.91-3.58-1.37-4.86-2.75-1.66-1.79-1.49-4.73.09-6.33,1.51-1.53,3.19-2.02,5.25-1.97,1.92.05,3.76-.09,5.62.63.29.82.51,2.2,0,2.98-.37.58-1.59.14-2.03-.1-1.25-.7-5.63-.43-4.98,1.21.6,1.53,4.17,1.9,6.45,3.79,1.49,1.24,2.34,2.9,1.97,4.85-.33,1.7-1.42,3.24-3.51,3.92Z"/>
        <path class="cls-2" d="M183.38,166.54c-1.18,3.49-6.84,4.5-10.18,3.47-.6-.18-1.87.14-2.43-.48-.66-.72-.4-2.18-.27-3.18,2.78-.43,4.66,1.37,7.82-.14,1.33-.63-.45-2.62-3.52-3.33-.81-.18-1.4-.74-2.09-1.14-1.5-.87-2.56-2.38-2.61-3.97-.1-3.46,2.81-5.61,7.04-5.44,1.56.06,3.36-.24,4.78.62.62.44.65,2.31.25,2.95-.51.7-1.61-.07-2.15-.2-1.68-.4-4.3-.39-4.64.69-.54,1.7,2.5,2.17,3.7,2.87l2.26,1.32c2.15,1.25,2.81,3.68,2.04,5.96Z"/>
        <rect class="cls-2" x="87.41" y="152.37" width="5.29" height="17.61"/>
        <path class="cls-1" d="M127.95,169.98l-.15-9.6-1.72,4.09c-.8,1.91-1.23,3.83-2.38,5.59-1.04.72-3.16.9-3.69-.36l-3.85-9.23-.26,9.42-3.13.18c-.69.04-1.12-.55-1.12-1.22l.02-15.58c0-.55.59-.94,1.1-.94h5.01c1.15,0,1.32.71,1.65,1.56l3.13,8.06c1.05-1.36,1.35-2.9,1.98-4.42l1.56-3.73c.2-.49.58-1.38,1.18-1.37l6.05.04v17.45s-5.38.06-5.38.06ZM128.67,158.59l.02,10.87c1.42.09,2.66.2,4-.14.26-5.53.24-10.72.02-16.28l-5.41-.1-3.88,9.48c-.13.32-.14.71-.49.8-.23.06-.64-.14-.77-.49l-3.88-9.8-5.81-.02v16.52c1.02.18,1.92.18,2.89-.11l.09-10.52c0-.36.87-.36.9-.03.1.96.59,1.57.91,2.39l3.32,8.43c.99.34,1.98.34,2.85-.11l2.77-6.98c1.09-2.74,1.43-4.45,2.49-3.88Z"/>
        <path class="cls-10" d="M128.67,158.59c-1.06-.57-1.4,1.14-2.49,3.88l-2.77,6.98c-.87.45-1.86.45-2.85.11l-3.32-8.43c-.32-.82-.81-1.43-.91-2.39-.03-.32-.9-.32-.9.03l-.09,10.52c-.97.28-1.87.28-2.89.11v-16.52s5.81.02,5.81.02l3.88,9.8c.14.35.54.55.77.49.35-.09.36-.47.49-.8l3.88-9.48,5.41.1c.22,5.56.24,10.76-.02,16.28-1.33.34-2.58.24-4,.14l-.02-10.87Z"/>
        <g>
          <polygon class="cls-9" points="85.95 44.91 85.95 129.87 170.88 129.87 170.63 131.39 170.61 144.06 71.78 144.02 71.75 45.23 84.65 45.13 85.95 44.91"/>
          <g>
            <path class="cls-11" d="M85.95,129.87V30.99h98.89v98.89h-98.89ZM149.12,112.6l8.91-.04c.45,0,.72-.52.7-.8,0,.13-1.73-3.27-2.69-5.34l-5.06-10.93c-.4-.87-1.32-1.74-1.26-2.75.09-1.37,1-2.46,1.56-3.65l6.81-14.52c.19-.4.54-.67.29-1.08-.11-.18-.41-.47-.8-.46l-8.6.05c-1.21,1.82-1.73,3.83-2.51,5.77l-2.33,5.8c-.82-.57-1.15-1.37-1.4-2.19-.44-1.49-1.1-2.8-1.64-4.21-.79-2.06-1.79-5.12-2.5-5.12l-8.1-.08c-.58,0-1.02.26-1.14.67-.13.44.28.68.46,1.07l1.5,3.21,2.94,6.2,3,6.13c.88,1.8.83,2.97-.04,4.73l-2.92,5.89c-.53,1.07-.87,2.03-1.37,3.08l-3.35,6.98c-.16.33-.53.61-.44,1.02.06.26.41.63.87.63h7.78c1.98.01,2.01-2.8,3.33-5.7l1.02-2.24c.61-1.36.78-2.75,1.92-3.98l1.11,2.4,1.4,3.62c.76,1.97,1.39,3.91,2.54,5.88ZM124.44,112.46c.83,0,1.31-.44,1.31-1.2l-.04-37.81c-2.87-.3-5.36-.27-8.15-.05l-.07,23.04c0,.18-.95.15-.95-.04,0-.12.02-.36-.1-.61l-9.98-22.2c-2.72-.5-5.38-.48-8.19-.04l.02,38.83h7.91s.22-23.93.22-23.93l5.28,11.23,5.75,12.71,6.97.07Z"/>
            <path class="cls-6" d="M124.44,112.46l-6.97-.07-5.75-12.71-5.28-11.23-.22,23.94h-7.91s-.02-38.83-.02-38.83c2.81-.45,5.47-.46,8.19.04l9.98,22.2c.11.25.1.49.1.61,0,.18.95.22.95.04l.07-23.04c2.79-.21,5.28-.25,8.15.05l.04,37.81c0,.76-.48,1.21-1.31,1.2Z"/>
            <g>
              <path class="cls-8" d="M149.12,112.6c-1.14-1.97-1.77-3.91-2.54-5.88l-1.4-3.62-1.11-2.4c-1.15,1.22-1.31,2.62-1.92,3.98l-1.02,2.24c-1.32,2.91-1.35,5.72-3.33,5.71h-7.78c-.46-.01-.81-.39-.87-.64-.1-.4.28-.68.44-1.02l3.35-6.98c.5-1.04.84-2.01,1.37-3.08l2.92-5.89c.87-1.76.92-2.93.04-4.73l-3-6.13-2.94-6.2-1.5-3.21c-.18-.38-.59-.63-.46-1.07.12-.4.56-.67,1.14-.67l8.1.08c.71,0,1.7,3.06,2.5,5.12.54,1.41,1.2,2.73,1.64,4.21.24.83.58,1.63,1.4,2.19l2.33-5.8c.78-1.94,1.3-3.95,2.51-5.77l8.6-.05c.38,0,.68.28.8.46.26.41-.1.68-.29,1.08l-6.81,14.52c-.56,1.19-1.47,2.28-1.56,3.65-.07,1.01.85,1.88,1.26,2.75l5.06,10.93c.96,2.07,2.7,5.47,2.69,5.34.02.28-.25.8-.7.8l-8.91.04ZM143.92,99.3c.81.05,1.09,1.61,1.32,2.21l4.09,10.41h8.51s-3.16-6.8-3.16-6.8l-2.95-6.2-3.05-6.26,5.95-12.4,3.2-6.51h-8.65s-4.57,11.8-4.57,11.8c-.13.34-.48.67-.71.66-.28,0-.55-.31-.69-.67l-4.6-11.72-8.36-.07,2.02,4.46c.36.79.62,1.46,1.01,2.26l1.9,3.99c.44.92.84,1.67,1.27,2.58l1.9,4c.62,1.31.75,1.78.07,3.15l-1.94,3.89-1.32,2.85-2.81,6.03-2.37,5.03,8.58-.13,1.82-4.83,2.24-5.49c.24-.59.24-2.28,1.29-2.23Z"/>
              <path class="cls-7" d="M143.92,99.3c-1.05-.05-1.05,1.64-1.29,2.23l-2.24,5.49-1.82,4.83-8.58.13,2.37-5.03,2.81-6.03,1.32-2.85,1.94-3.89c.68-1.37.55-1.85-.07-3.15l-1.9-4c-.43-.91-.84-1.66-1.27-2.58l-1.9-3.99c-.38-.8-.65-1.47-1.01-2.26l-2.02-4.46,8.36.07,4.6,11.72c.14.36.41.67.69.67.23,0,.58-.32.71-.66l4.57-11.78h8.65s-3.2,6.49-3.2,6.49l-5.95,12.4,3.05,6.26,2.95,6.2,3.16,6.8h-8.51s-4.09-10.41-4.09-10.41c-.23-.59-.51-2.16-1.32-2.21Z"/>
            </g>
          </g>
        </g>
      </g>
    </g>
  </g>
</svg>